# xmcd
#
# Track frame offsets:
#	150
#	11856
#	23057
#	34564
#	49993
#	63207
#	75694
#	82346
#	95123
#	103090
#	116249
#	130477
#	144400
#	160920
#	176650
#	189171
#	202429
#	215076
#	231443
#	244168
#	256400
#	270701
#	283471
#	292847
#	307130
#
# Disc length: 4253 seconds
#
# Revision: 4
# Processed by: cddbd v1.4PL0 Copyright (c) Steve Scherf et al.
# Submitted via: MusicWizard 6.0.0
#
DISCID=8c109b19
DTITLE=Various Artist - 100 Country Greats CD 1/4
DYEAR=1999
DGENRE=Country
TTITLE0=Patsy Cline - Walkin' After Midnight
TTITLE1=Conway Twitty - It's Only Make Believe
TTITLE2=The Kendalls - Heaven's Just A Sin Away
TTITLE3=Kenny Rogers - For The Good Times
TTITLE4=Wanda Jackson - I Fall To Pieces
TTITLE5=Johnny Paycheck - Take This Job And Shove It
TTITLE6=Jim Reeves - Have I Told You Latesly That I Love You (Live)
TTITLE7=Johnny Cash - Folsom Prison Blues (Live)
TTITLE8=Roger Miller - Dang Me
TTITLE9=Dottie West - D.I.V.O.R.C.E.
TTITLE10=Lee Greenwood - I.O.U.
TTITLE11=Mickey Gilley - Crazy Arms
TTITLE12=Ed Bruce - After All
TTITLE13=Holly Dunn - Daddy's Hands
TTITLE14=Merle Haggard - If We Can't Make It Thru December
TTITLE15=Bobby Bare - Detroit City
TTITLE16=Don Gibson - I Love You Because
TTITLE17=Willie Nelson - Georgia On My Mind (Live)
TTITLE18=Faron Young - Apartment Number 9
TTITLE19=Bill Anderson - The Tips Of My Fingers
TTITLE20=Eddy Arnold - I'm Thinking Tonight Of My Blue Eyes
TTITLE21=Hank Thompson - I Recall A Gypsy Woman
TTITLE22=Jeannie C. Riley - The Girl Most Likely
TTITLE23=T. Graham Brown - Hell And High Water
TTITLE24=Don Williams - Tulsa Time (Live)
EXTD=(c)1999 Castle Music Ltd England\nupc PBX CD 442/1 YEAR: 1999
EXTT0=
EXTT1=
EXTT2=
EXTT3=
EXTT4=
EXTT5=
EXTT6=
EXTT7=
EXTT8=
EXTT9=
EXTT10=
EXTT11=
EXTT12=
EXTT13=
EXTT14=
EXTT15=
EXTT16=
EXTT17=
EXTT18=
EXTT19=
EXTT20=
EXTT21=
EXTT22=
EXTT23=
EXTT24=
PLAYORDER=
